# xmcd CD database file
#
# Track frame offsets:
#	150
#	2840
#	12041
#	17922
#	26463
#	33566
#	40015
#	48747
#	58864
#	64069
#	77178
#	83794
#	89758
#	98453
#	109389
#	114495
#	127722
#	134314
#	146309
#	155383
#	166823
#	178031
#	184350
#	193085
#	203656
#	212557
#	221650
#	231955
#	240835
#	251397
#	261804
#	273905
#
# Disc length: 3834 seconds
#
# Revision: 1
# Processed by: cddbd v1.5.2PL0 Copyright (c) Steve Scherf et al.
# Submitted via: jetAudio 7
#
DISCID=b20ef820
DTITLE=Chet Atkins - Early Chet Atkins
DYEAR=2004
DGENRE=Country
TTITLE0=Radiozark Theme
TTITLE1=The Leaf Of Love
TTITLE2=Guitar Solo
TTITLE3=Late Evening Blues - Charming Billy
TTITLE4=Johnson Boys
TTITLE5=The Old Black Mountain Trail
TTITLE6=That Pretty Little Face
TTITLE7=Cabin In The Valley Of The Pines
TTITLE8=Guitar Solo
TTITLE9=Heartbroken
TTITLE10=Beaumont Rag - In The Pines
TTITLE11=Canned Heat
TTITLE12=Grandma Told Me So
TTITLE13=One More Chance
TTITLE14=Ida, Sweet As Apple Cider
TTITLE15=My Gal Sal - Crossbow - Little Sweetheart I Miss You
TTITLE16=Canned Heat
TTITLE17=I've Been Bitten By The Same Bug Twice
TTITLE18=Alabama Jubilee
TTITLE19=Bummin' Around
TTITLE20=San Antonio Rose
TTITLE21=Rainbow
TTITLE22=It's My Lazy Day
TTITLE23=Poor Old Heartsick Me
TTITLE24=Five Foot Two
TTITLE25=The Poor People Of Paris (Jean's Song)
TTITLE26=Good Lord Saying ''Good Morning''
TTITLE27=Country Gentleman
TTITLE28=Moonlight Mountain
TTITLE29=Country Gentleman
TTITLE30=The Poor People Of Paris (Jean's Song)
TTITLE31=Dance Of The Golden Rod
EXTD=2004 Country Routes Records RFDCD32
EXTT0=
EXTT1=
EXTT2=
EXTT3=
EXTT4=
EXTT5=
EXTT6=
EXTT7=
EXTT8=
EXTT9=
EXTT10=
EXTT11=
EXTT12=
EXTT13=
EXTT14=
EXTT15=
EXTT16=
EXTT17=
EXTT18=
EXTT19=
EXTT20=
EXTT21=
EXTT22=
EXTT23=
EXTT24=
EXTT25=
EXTT26=
EXTT27=
EXTT28=
EXTT29=
EXTT30=
EXTT31=
PLAYORDER=
